<?xml version="1.0" encoding="UTF-8"?>
<svg width="24px" height="24px" viewBox="0 0 24 24" version="1.1" xmlns="http://www.w3.org/2000/svg" xmlns:xlink="http://www.w3.org/1999/xlink">
    <!-- Generator: Sketch 46.2 (44496) - http://www.bohemiancoding.com/sketch -->
    <title>icon/close</title>
    <desc>Created with Sketch.</desc>
    <defs></defs>
    <g id="Symbols" stroke="none" stroke-width="1" fill="none" fill-rule="evenodd">
        <g id="icon/close" fill="#5A5A5A">
            <path d="M20.1538462,11.8461538 L12.7692308,11.8461538 L12.7692308,4.46153846 C12.7692308,4.20769231 12.5615385,4 12.3076923,4 C12.0538462,4 11.8461538,4.20769231 11.8461538,4.46153846 L11.8461538,11.8461538 L4.46153846,11.8461538 C4.20769231,11.8461538 4,12.0538462 4,12.3076923 C4,12.5615385 4.20769231,12.7692308 4.46153846,12.7692308 L11.8461538,12.7692308 L11.8461538,20.1538462 C11.8461538,20.4076923 12.0538462,20.6153846 12.3076923,20.6153846 C12.5615385,20.6153846 12.7692308,20.4076923 12.7692308,20.1538462 L12.7692308,12.7692308 L20.1538462,12.7692308 C20.4076923,12.7692308 20.6153846,12.5615385 20.6153846,12.3076923 C20.6153846,12.0538462 20.4076923,11.8461538 20.1538462,11.8461538" id="close" transform="translate(12.307692, 12.307692) rotate(-315.000000) translate(-12.307692, -12.307692) "></path>
        </g>
    </g>
</svg>