<?xml version="1.0" encoding="UTF-8"?>
<svg width="24px" height="24px" viewBox="0 0 24 24" version="1.1" xmlns="http://www.w3.org/2000/svg" xmlns:xlink="http://www.w3.org/1999/xlink">
    <!-- Generator: Sketch 46.2 (44496) - http://www.bohemiancoding.com/sketch -->
    <title>icon/concat copy</title>
    <desc>Created with Sketch.</desc>
    <defs></defs>
    <g id="Symbols" stroke="none" stroke-width="1" fill="none" fill-rule="evenodd">
        <g id="icon/concat-copy" fill="#979797">
            <path d="M14,14 L17.7458333,14 L17.7458333,6.25416667 L10,6.25416667 L10,10 L6.225,10 L6.225,17.775 L14,17.775 L14,14 Z M15,15 L17.8802083,15 C18.1753487,15 18.4357628,14.8914941 18.6614583,14.6744792 C18.8871539,14.4574642 19,14.2013904 19,13.90625 L19,6.11979167 C19,5.8246513 18.8871539,5.56423724 18.6614583,5.33854167 C18.4357628,5.11284609 18.1753487,5 17.8802083,5 L10.09375,5 C9.79860964,5 9.54253581,5.11284609 9.32552083,5.33854167 C9.10850586,5.56423724 9,5.8246513 9,6.11979167 L9,9 L6.09375,9 C5.79860964,9 5.54253581,9.11284609 5.32552083,9.33854167 C5.10850586,9.56423724 5,9.8246513 5,10.1197917 L5,17.90625 C5,18.2013904 5.10850586,18.4574642 5.32552083,18.6744792 C5.54253581,18.8914941 5.79860964,19 6.09375,19 L13.8802083,19 C14.1753487,19 14.4357628,18.8914941 14.6614583,18.6744792 C14.8871539,18.4574642 15,18.2013904 15,17.90625 L15,15 Z" id="Combined-Shape"></path>
        </g>
    </g>
</svg>