<?xml version="1.0" encoding="UTF-8"?>
<svg width="24px" height="24px" viewBox="0 0 24 24" version="1.1" xmlns="http://www.w3.org/2000/svg" xmlns:xlink="http://www.w3.org/1999/xlink">
    <!-- Generator: Sketch 46.2 (44496) - http://www.bohemiancoding.com/sketch -->
    <title>icon/copy</title>
    <desc>Created with Sketch.</desc>
    <defs></defs>
    <g id="Symbols" stroke="none" stroke-width="1" fill="none" fill-rule="evenodd">
        <g id="icon/copy" fill="#009FDB">
            <path d="M16.6823207,17.779975 L16.6823207,8.13076534 L9.13076534,8.13076534 L9.13076534,17.779975 L16.6823207,17.779975 Z M16.6823207,6.77535796 C17.0480674,6.77535796 17.3707802,6.90982163 17.6504688,7.17875301 C17.9301575,7.44768439 18.0699997,7.76501866 18.0699997,8.13076534 L18.0699997,17.779975 C18.0699997,18.1457217 17.9301575,18.4684345 17.6504688,18.7481231 C17.3707802,19.0278117 17.0480674,19.167654 16.6823207,19.167654 L9.13076534,19.167654 C8.76501866,19.167654 8.44230584,19.0278117 8.16261721,18.7481231 C7.88292858,18.4684345 7.74308636,18.1457217 7.74308636,17.779975 L7.74308636,8.13076534 C7.74308636,7.76501866 7.88292858,7.44768439 8.16261721,7.17875301 C8.44230584,6.90982163 8.76501866,6.77535796 9.13076534,6.77535796 L16.6823207,6.77535796 Z M14.616938,4 L14.616938,5.38767898 L6.35540738,5.38767898 L6.35540738,15.0368886 L5,15.0368886 L5,5.38767898 C5,5.0219323 5.13446367,4.69921949 5.40339505,4.41953085 C5.67232643,4.13984222 5.9896607,4 6.35540738,4 L14.616938,4 Z" id="content_copy"></path>
        </g>
    </g>
</svg>