<?xml version="1.0" encoding="UTF-8"?>
<svg width="24px" height="24px" viewBox="0 0 24 24" version="1.1" xmlns="http://www.w3.org/2000/svg" xmlns:xlink="http://www.w3.org/1999/xlink">
    <!-- Generator: Sketch 46.2 (44496) - http://www.bohemiancoding.com/sketch -->
    <title>icon/edit</title>
    <desc>Created with Sketch.</desc>
    <defs></defs>
    <g id="Symbols" stroke="none" stroke-width="1" fill="none" fill-rule="evenodd">
        <g id="icon/edit" fill="#0568AE">
            <path d="M14.3676968,3 C14.34993,3.00162523 14.3322912,3.0044314 14.3148973,3.00839992 C14.1901219,3.02176437 14.0734683,3.07670988 13.9837006,3.16439835 L0.564235418,16.5154642 C0.476555486,16.6047554 0.421588128,16.7210325 0.408236985,16.8454609 L0.00264105915,20.3866253 C-0.0117307683,20.5335434 0.0329561816,20.6801411 0.126838313,20.7940604 C0.220720445,20.9079798 0.35607874,20.9798542 0.503036033,20.9938192 C0.542920833,20.998105 0.583150027,20.998105 0.623034827,20.9938192 L4.17259917,20.6026232 C4.30044091,20.5914939 4.42046286,20.5363602 4.51219576,20.4466247 L17.9220611,7.09555886 C18.0268567,6.99187563 18.0858246,6.8505817 18.0858246,6.7031628 C18.0858246,6.55574391 18.0268567,6.41444997 17.9220611,6.31076674 L14.7660928,3.17039829 C14.660086,3.06385873 14.5155836,3.00458679 14.3652968,3.00599994 L14.3652968,3.00599994 L14.3676968,3 Z M14.3760967,4.3439865 L16.7388729,6.69476289 L15.9540808,7.48435495 L13.5913046,5.13357857 L14.3760967,4.3439865 Z M12.7981125,5.91477072 L15.1608888,8.26554711 L4.31419775,19.0654386 L1.95142148,16.7134622 L12.7981125,5.91477072 Z M1.42822674,17.7646517 L3.25940834,19.5862334 L1.20142902,19.8118311 L1.42822674,17.7646517 Z M7.81936254,19.8814304 C7.51251621,19.8814304 7.26376812,20.1301785 7.26376812,20.4370248 C7.26376812,20.7438712 7.51251621,20.9926193 7.81936254,20.9926193 L23.4444056,20.9926193 C23.7512519,20.9926193 24,20.7438712 24,20.4370248 C24,20.1301785 23.7512519,19.8814304 23.4444056,19.8814304 L7.81936254,19.8814304 L7.81936254,19.8814304 Z" id="Shape"></path>
        </g>
    </g>
</svg>