<?xml version="1.0" encoding="UTF-8"?>
<svg width="24px" height="24px" viewBox="0 0 24 24" version="1.1" xmlns="http://www.w3.org/2000/svg" xmlns:xlink="http://www.w3.org/1999/xlink">
    <!-- Generator: Sketch 50.2 (55047) - http://www.bohemiancoding.com/sketch -->
    <title>icons/group_map</title>
    <desc>Created with Sketch.</desc>
    <defs></defs>
    <g id="icons/group_map" stroke="none" stroke-width="1" fill="none" fill-rule="evenodd">
        <polygon id="Fill-1" fill="#FFFFFF" points="2.59576986 21.9382739 21.9382739 21.9382739 21.9382739 2.59576986 2.59576986 2.59576986"></polygon>
        <path d="M2.56278293,20.6403889 L20.6403889,20.6403889 L20.6403889,2.56278293 L2.56278293,2.56278293 L2.56278293,20.6403889 Z M1.29788493,21.9052869 L21.9052869,21.9052869 L21.9052869,1.29788493 L1.29788493,1.29788493 L1.29788493,21.9052869 Z" id="Fill-2" fill="#009FDB"></path>
        <polygon id="Fill-3" fill="#FFFFFF" points="10.3830794 17.9724674 17.9724674 17.9724674 17.9724674 10.3830794 10.3830794 10.3830794"></polygon>
        <path d="M10.3500925,16.6745825 L16.6745825,16.6745825 L16.6745825,10.3500925 L10.3500925,10.3500925 L10.3500925,16.6745825 Z M9.0851945,17.9394805 L17.9394805,17.9394805 L17.9394805,9.0851945 L9.0851945,9.0851945 L9.0851945,17.9394805 Z" id="Fill-4" fill="#009FDB"></path>
        <polygon id="Fill-13" fill="#FFFFFF" points="5.19153972 14.0788126 12.7809277 14.0788126 12.7809277 6.48942465 5.19153972 6.48942465"></polygon>
        <path d="M6.45643772,12.7809277 L12.7809277,12.7809277 L12.7809277,6.45643772 L6.45643772,6.45643772 L6.45643772,12.7809277 Z M5.19153972,14.0458257 L14.0458257,14.0458257 L14.0458257,5.19153972 L5.19153972,5.19153972 L5.19153972,14.0458257 Z" id="Fill-14" fill="#009FDB"></path>
        <polygon id="Fill-5" fill="#FFFFFF" points="0 3.00413275 3.00413275 3.00413275 3.00413275 0 0 0"></polygon>
        <path d="M0,4.26903075 L4.26903075,4.26903075 L4.26903075,0 L0,0 L0,4.26903075 Z M1.264898,3.00444897 L3.00444897,3.00444897 L3.00444897,1.26521422 L1.264898,1.26521422 L1.264898,3.00444897 Z" id="Fill-6" fill="#009FDB"></path>
        <polygon id="Fill-7" fill="#FFFFFF" points="19.4682739 3.00413275 22.4724067 3.00413275 22.4724067 0 19.4682739 0"></polygon>
        <path d="M19.4682739,4.26903075 L23.7373047,4.26903075 L23.7373047,0 L19.4682739,0 L19.4682739,4.26903075 Z M20.7331719,3.00444897 L22.4724067,3.00444897 L22.4724067,1.26521422 L20.7331719,1.26521422 L20.7331719,3.00444897 Z" id="Fill-8" fill="#009FDB"></path>
        <polygon id="Fill-9" fill="#FFFFFF" points="0 22.4724067 3.00413275 22.4724067 3.00413275 19.4682739 0 19.4682739"></polygon>
        <path d="M0,23.7373047 L4.26903075,23.7373047 L4.26903075,19.4682739 L0,19.4682739 L0,23.7373047 Z M1.264898,22.4727229 L3.00444897,22.4727229 L3.00444897,20.7331719 L1.264898,20.7331719 L1.264898,22.4727229 Z" id="Fill-10" fill="#009FDB"></path>
        <polygon id="Fill-11" fill="#FFFFFF" points="19.4682739 22.4724067 22.4724067 22.4724067 22.4724067 19.4682739 19.4682739 19.4682739"></polygon>
        <rect id="Rectangle" fill="#FFFFFF" x="5" y="5" width="13" height="13"></rect>
        <path d="M19.4682739,23.7373047 L23.7373047,23.7373047 L23.7373047,19.4682739 L19.4682739,19.4682739 L19.4682739,23.7373047 Z M20.7331719,22.4727229 L22.4724067,22.4727229 L22.4724067,20.7331719 L20.7331719,20.7331719 L20.7331719,22.4727229 Z" id="Fill-12" fill="#009FDB"></path>
        <path d="M11.2368164,16 L8.54541016,8.24951172 L8.49462891,8.24951172 C8.56656937,9.40055914 8.60253906,10.4796499 8.60253906,11.4868164 L8.60253906,16 L7.22509766,16 L7.22509766,6.71972656 L9.36425781,6.71972656 L11.9414062,14.1020508 L11.9794922,14.1020508 L14.6328125,6.71972656 L16.7783203,6.71972656 L16.7783203,16 L15.3183594,16 L15.3183594,11.4106445 C15.3183594,10.9493792 15.3299966,10.3484738 15.3532715,9.60791016 C15.3765463,8.86734656 15.3966471,8.41878333 15.4135742,8.26220703 L15.362793,8.26220703 L12.5761719,16 L11.2368164,16 Z" id="M" fill="#009FDB"></path>
    </g>
</svg>