<svg id="Layer_1" data-name="Layer 1" xmlns="http://www.w3.org/2000/svg" xmlns:xlink="http://www.w3.org/1999/xlink" viewBox="0 0 23.74 23.74"><defs><style>.cls-1{fill:none;clip-rule:evenodd;}.cls-2{fill:#009fdb;}.cls-3{clip-path:url(#clip-path);}</style><clipPath id="clip-path"><polygon class="cls-1" points="14.49 16 9.24 16 9.24 6.72 14.49 6.72 14.49 8 10.76 8 10.76 10.53 14.26 10.53 14.26 11.8 10.76 11.8 10.76 14.71 14.49 14.71 14.49 16"/></clipPath></defs><title>Artboard 1 copy</title><path class="cls-2" d="M23.74,4.27V0H19.47V1.48H4.27V0H0V4.27H1.49v15.2H0v4.27H4.27V22.09h15.2v1.65h4.27V19.47H22.1V4.27Zm-3-3h1.74V3H20.73ZM1.27,3V1.27H3V3ZM3,22.47H1.27V20.73H3Zm19.47-1.74v1.74H20.73V20.73Zm-1.63-1.26H19.47v1.35H4.27V19.47H2.76V4.27H4.27V2.75h15.2V4.27h1.37Z"/><g class="cls-3"><rect class="cls-2" x="4.24" y="1.72" width="15.25" height="19.28"/></g></svg>