<?xml version="1.0" encoding="UTF-8"?>
<svg width="20px" height="18px" viewBox="0 0 20 18" version="1.1" xmlns="http://www.w3.org/2000/svg" xmlns:xlink="http://www.w3.org/1999/xlink">
    <!-- Generator: Sketch 50.2 (55047) - http://www.bohemiancoding.com/sketch -->
    <title>icons/actions/download copy</title>
    <desc>Created with Sketch.</desc>
    <defs>
        <path d="M10.8333333,8.83333333 L13.0833333,11.0833333 C13.4166667,11.4166667 13.4166667,11.9166667 13.0833333,12.25 C12.9166667,12.4166667 12.6666667,12.5 12.5,12.5 C12.3333333,12.5 12.0833333,12.4166667 11.9166667,12.25 L9.41666667,9.75 C9.25,9.58333333 9.16666667,9.41666667 9.16666667,9.16666667 L9.16666667,4.16666667 C9.16666667,3.66666667 9.5,3.33333333 10,3.33333333 C10.5,3.33333333 10.8333333,3.66666667 10.8333333,4.16666667 L10.8333333,8.83333333 Z M17.8364846,5.58223491 C19.4189846,9.91556825 17.0864846,14.6655682 12.7523179,16.1655682 C11.8364846,16.4989016 10.9189846,16.6655682 10.0031512,16.6655682 C6.58648456,16.6655682 3.33648456,14.4989016 2.08648456,11.0822349 C1.91898456,10.6655682 2.16898456,10.1655682 2.58565123,9.99890158 C3.0023179,9.83223491 3.50315123,10.0822349 3.6698179,10.4989016 C4.9198179,13.9989016 8.6698179,15.8322349 12.1689846,14.5822349 C13.9198179,13.9989016 15.2523179,12.7489016 16.0031512,11.1655682 C16.7523179,9.58223491 16.8364846,7.74890158 16.2531512,6.08223491 C15.6689846,4.33223491 14.4189846,2.99890158 12.8364846,2.24890158 C11.2531512,1.49890158 9.41898456,1.41556825 7.7523179,1.99890158 C6.83648456,2.33223491 5.91898456,2.91556825 5.2523179,3.58223491 L2.9198179,5.83223491 L5.83648456,5.83223491 C6.33565123,5.83223491 6.5023179,5.99890158 6.5023179,6.49890158 C6.5023179,6.99890158 6.1698179,7.33223491 5.66898456,7.33223491 L0.668984565,7.33223491 L0.502317898,7.33223491 L0.419817898,7.33223491 L0.336484565,7.24890158 C0.252317898,7.24890158 0.252317898,7.24890158 0.169817898,7.16556825 C0.0856512313,7.16556825 0.0856512313,7.08223491 0.0856512313,7.08223491 C0.0856512313,6.99890158 0.00315123127,6.99890158 0.00315123127,6.91556825 L0.00315123127,6.74890158 L0.00315123127,6.66556825 L0.00315123127,1.66556825 C0.00315123127,1.16556825 0.336484565,0.832234912 0.836484565,0.832234912 C1.33565123,0.832234912 1.6698179,1.16556825 1.6698179,1.66556825 L1.6698179,4.74890158 L4.1698179,2.41556825 C5.00315123,1.58223491 6.08565123,0.915568245 7.25315123,0.498901579 C9.33648456,-0.251098421 11.5864846,-0.167765088 13.5856512,0.832234912 C15.5864846,1.83223491 17.0864846,3.49890158 17.8364846,5.58223491 Z" id="path-1"></path>
    </defs>
    <g id="Vr7" stroke="none" stroke-width="1" fill="none" fill-rule="evenodd">
        <g id="DCAE-1810-MC_monitoring_list" transform="translate(-1264.000000, -489.000000)">
            <g id="icons/versio_bar/revert" transform="translate(1264.000000, 488.000000)">
                <g id="color-/-gray-#5A5A5A-/-idle--Copy-20" transform="translate(0.833333, 1.666667)">
                    <mask id="mask-2" fill="white">
                        <use xlink:href="#path-1"></use>
                    </mask>
                    <use id="Mask" fill="#000000" xlink:href="#path-1"></use>
                    <g id="color/gray#5A5A5A" mask="url(#mask-2)" fill="#5A5A5A">
                        <g transform="translate(-0.833333, -1.666667)" id="Rectangle-3">
                            <rect x="0" y="0" width="25" height="25"></rect>
                        </g>
                    </g>
                </g>
            </g>
        </g>
    </g>
</svg>