<?xml version="1.0" encoding="UTF-8"?>
<svg width="13px" height="17px" viewBox="0 0 13 17" version="1.1" xmlns="http://www.w3.org/2000/svg" xmlns:xlink="http://www.w3.org/1999/xlink">
    <!-- Generator: Sketch 50.2 (55047) - http://www.bohemiancoding.com/sketch -->
    <title>icon_delete copy 2</title>
    <desc>Created with Sketch.</desc>
    <defs>
        <polygon id="path-1" points="0 0 12.6666667 0 12.6666667 15.8333333 0 15.8333333"></polygon>
    </defs>
    <g id="Vr7" stroke="none" stroke-width="1" fill="none" fill-rule="evenodd">
        <g id="DCAE-1810-MC_monitoring_list" transform="translate(-1199.000000, -489.000000)">
            <g id="icons/vid/testing-" transform="translate(1196.000000, 488.000000)">
                <g id="Page-1" transform="translate(3.166667, 1.583333)">
                    <mask id="mask-2" fill="white">
                        <use xlink:href="#path-1"></use>
                    </mask>
                    <g id="Clip-2"></g>
                    <path d="M11.2592593,13.6742424 C11.2592593,14.1060606 10.9777778,14.3939394 10.5555556,14.3939394 L2.11111111,14.3939394 C1.68888889,14.3939394 1.40740741,14.1060606 1.40740741,13.6742424 L1.40740741,3.59848485 C1.40740741,3.16594697 1.68888889,2.87878788 2.11111111,2.87878788 L2.81481481,2.87878788 C2.81481481,3.67045455 3.44814815,4.31818182 4.22222222,4.31818182 L8.44444444,4.31818182 C9.21851852,4.31818182 9.85185185,3.67045455 9.85185185,2.87878788 L10.5555556,2.87878788 C10.9777778,2.87878788 11.2592593,3.16594697 11.2592593,3.59848485 L11.2592593,13.6742424 Z M4.22222222,2.15909091 L4.22222222,1.43939394 L8.44444444,1.43939394 L8.44444444,2.87878788 L4.22222222,2.87878788 L4.22222222,2.15909091 Z M9.07757161,6.57083333 C9.39423828,6.25416667 9.86923828,6.25416667 10.1859049,6.57083333 C10.5017799,6.8875 10.5017799,7.3625 10.1859049,7.67916667 L6.26429814,11.9077762 C6.10596481,12.0661096 5.86846481,12.1452762 5.71013148,12.1452762 C5.55179814,12.1452762 5.31429814,12.0661096 5.15596481,11.9077762 L3.40416667,10.2452762 C3.0875,9.92860957 3.0875,9.45360957 3.40416667,9.1369429 C3.72083333,8.82027624 4.19583333,8.82027624 4.5125,9.1369429 L5.71013148,10.2452762 L9.07757161,6.57083333 Z M9.85185185,1.43939394 C9.85185185,0.647007576 9.21851852,0 8.44444444,0 L4.22222222,0 C3.44814815,0 2.81481481,0.647007576 2.81481481,1.43939394 L2.11111111,1.43939394 C0.914814815,1.43939394 0,2.375 0,3.59848485 L0,13.6742424 C0,14.8970076 0.914814815,15.8333333 2.11111111,15.8333333 L10.5555556,15.8333333 C11.7518519,15.8333333 12.6666667,14.8970076 12.6666667,13.6742424 L12.6666667,3.59848485 C12.6666667,2.375 11.7518519,1.43939394 10.5555556,1.43939394 L9.85185185,1.43939394 Z" id="Combined-Shape" fill="#5A5A5A" mask="url(#mask-2)"></path>
                </g>
            </g>
        </g>
    </g>
</svg>