<?xml version="1.0" encoding="UTF-8"?>
<svg width="24px" height="24px" viewBox="0 0 24 24" version="1.1" xmlns="http://www.w3.org/2000/svg" xmlns:xlink="http://www.w3.org/1999/xlink">
    <!-- Generator: Sketch 46.2 (44496) - http://www.bohemiancoding.com/sketch -->
    <title>icon/Regex</title>
    <desc>Created with Sketch.</desc>
    <defs></defs>
    <g id="Symbols" stroke="none" stroke-width="1" fill="none" fill-rule="evenodd">
        <g id="icon/Regex" fill="#666666">
            <path d="M3.54146058,12.0499152 L1.86915752,12.0499152 L1.86915752,15.0314555 L1,15.0314555 L1,7.33005982 L3.55246258,7.33005982 C4.37394889,7.33005982 5.0138918,7.53359467 5.47231051,7.94067048 C5.93072921,8.34774628 6.15993512,8.92167789 6.15993512,9.66248252 C6.15993512,10.2199197 6.00957604,10.7003353 5.70885337,11.1037437 C5.40813071,11.5071522 4.99005912,11.7821993 4.45462607,11.9288933 L6.42398298,15.0314555 L5.37879356,15.0314555 L3.54146058,12.0499152 Z M1.86915752,11.2467696 L3.56346457,11.2467696 C4.09889762,11.2467696 4.5169692,11.1074124 4.81769187,10.8286939 C5.11841454,10.5499753 5.26877362,10.1649094 5.26877362,9.67348451 C5.26877362,9.18939436 5.12208184,8.81166301 4.82869387,8.54027914 C4.5353059,8.26889527 4.11356701,8.13320537 3.56346457,8.13320537 L1.86915752,8.13320537 L1.86915752,11.2467696 Z M8.08528405,12.4789929 C8.14396164,13.0731036 8.35483108,13.5425173 8.7178987,13.8872482 C9.08096631,14.231979 9.54854637,14.4043419 10.1206529,14.4043419 C10.4653838,14.4043419 10.7661019,14.3713362 11.0228164,14.3053239 C11.2795309,14.2393116 11.554578,14.1219582 11.847966,13.9532601 L12.1230158,14.5913758 C11.8076237,14.7820779 11.4867355,14.9214351 11.1603413,15.0094515 C10.8339472,15.0974679 10.4653841,15.1414755 10.054641,15.1414755 C9.48253441,15.1414755 8.98378234,15.0131201 8.55836979,14.7564057 C8.13295723,14.4996912 7.80656801,14.1494646 7.57919233,13.7057153 C7.35181665,13.261966 7.23813052,12.7540457 7.23813052,12.1819391 C7.23813052,11.5951632 7.3573176,11.0744073 7.59569532,10.619656 C7.83407305,10.1649046 8.15129403,9.81467799 8.54736779,9.56896557 C8.94344155,9.32325314 9.37984961,9.20039877 9.85660506,9.20039877 C10.3480299,9.20039877 10.7752697,9.31591855 11.1383373,9.54696158 C11.501405,9.77800461 11.781953,10.0952256 11.9799899,10.498634 C12.1780268,10.9020425 12.2770437,11.356787 12.2770437,11.8628813 C12.2770437,12.0682529 12.2697091,12.2736214 12.2550397,12.4789929 L8.08528405,12.4789929 Z M9.86760706,9.93753236 C9.3981863,9.93753236 9.00395213,10.1025606 8.68489272,10.4326221 C8.3658333,10.7626836 8.16963304,11.2064262 8.09628604,11.7638633 L11.4408922,11.7638633 L11.4408922,11.7088534 C11.4408922,11.3714572 11.3730472,11.0652381 11.2373553,10.7901869 C11.1016634,10.5151357 10.916465,10.3042662 10.6817546,10.1575722 C10.4470442,10.0108783 10.1756644,9.93753236 9.86760706,9.93753236 Z M17.183933,7 L18.0200845,7 L13.7513109,16.8357825 L12.9151594,16.8357825 L17.183933,7 Z M20.4955331,17.5179061 C19.7400591,17.5179061 19.0506077,17.3565452 18.4271583,17.0338184 L18.6471982,16.3516948 C18.9039126,16.4837194 19.1899616,16.5882373 19.5053537,16.6652516 C19.8207458,16.742266 20.1287985,16.7807725 20.4295212,16.7807725 C21.0603053,16.7807725 21.5205508,16.6340808 21.8102714,16.3406928 C22.099992,16.0473048 22.2448502,15.5852257 22.2448502,14.9544416 L22.2448502,14.3603339 C21.9514622,14.5950443 21.6599123,14.7655735 21.3701916,14.8719266 C21.080471,14.9782798 20.7522482,15.0314555 20.3855132,15.0314555 C19.9087577,15.0314555 19.4888525,14.9049339 19.1257849,14.6518867 C18.7627173,14.3988396 18.4840029,14.0522803 18.2896334,13.6121983 C18.0952638,13.1721164 17.9980805,12.6733643 17.9980805,12.1159271 C17.9980805,11.5364859 18.109933,11.0248983 18.3336413,10.581149 C18.5573497,10.1373997 18.8599015,9.7963413 19.2413058,9.55796357 C19.6227102,9.31958585 20.055451,9.20039877 20.5395411,9.20039877 C21.1849946,9.20039877 21.7717618,9.40576727 22.2998601,9.81651043 L22.3658721,9.32142071 L23.0699997,9.32142071 L23.0699997,14.8884296 C23.0699997,15.7465894 22.8517957,16.3993679 22.4153811,16.8467845 C21.9789665,17.2942012 21.3390235,17.5179061 20.4955331,17.5179061 Z M20.5725471,14.2943219 C20.8732698,14.2943219 21.1574851,14.2411462 21.4252016,14.134793 C21.6929181,14.0284399 21.9661316,13.8579107 22.2448502,13.6232003 L22.2448502,10.564646 C22.0174745,10.3666091 21.7680984,10.2125828 21.4967146,10.1025623 C21.2253307,9.99254178 20.9539509,9.93753236 20.682567,9.93753236 C20.1177952,9.93753236 19.6685516,10.1373999 19.3348228,10.537141 C19.001094,10.9368821 18.8342321,11.4631389 18.8342321,12.1159271 C18.8342321,12.7613807 18.9937594,13.2858038 19.3128188,13.6892123 C19.6318782,14.0926207 20.0517834,14.2943219 20.5725471,14.2943219 Z" id="Re/g"></path>
        </g>
    </g>
</svg>