<?xml version="1.0" encoding="UTF-8"?>
<svg width="24px" height="24px" viewBox="0 0 24 24" version="1.1" xmlns="http://www.w3.org/2000/svg" xmlns:xlink="http://www.w3.org/1999/xlink">
    <!-- Generator: Sketch 46.2 (44496) - http://www.bohemiancoding.com/sketch -->
    <title>icon/settings</title>
    <desc>Created with Sketch.</desc>
    <defs></defs>
    <g id="Symbols" stroke="none" stroke-width="1" fill="none" fill-rule="evenodd">
        <g id="icon/settings" fill="#999999">
            <path d="M12,15.4042105 C10.1203158,15.4042105 8.59505263,13.8804211 8.59505263,12 C8.59505263,10.1210526 10.1203158,8.59652632 12,8.59652632 C13.8796842,8.59652632 15.4049474,10.1210526 15.4049474,12 C15.4049474,13.8804211 13.8796842,15.4042105 12,15.4042105 L12,15.4042105 Z M19,13.2835789 L19,10.7178947 L17.432,10.4548421 C17.3111579,10.0318947 17.1438947,9.62884211 16.9338947,9.25231579 L17.8571579,7.95768421 L16.0430526,6.14357895 L14.7476842,7.06684211 C14.3718947,6.85684211 13.9688421,6.68884211 13.5458947,6.56873684 L13.2828421,5 L10.7171579,5 L10.4541053,6.56873684 C10.0311579,6.68884211 9.62884211,6.85684211 9.25231579,7.06684211 L7.95694737,6.14357895 L6.14284211,7.95768421 L7.06610526,9.25231579 C6.85610526,9.62884211 6.68884211,10.0311579 6.568,10.4548421 L5,10.7178947 L5,13.2835789 L6.568,13.5466316 C6.68884211,13.9695789 6.85610526,14.3718947 7.06610526,14.7484211 L6.14284211,16.0430526 L7.95694737,17.8578947 L9.25231579,16.9346316 C9.62884211,17.1446316 10.0311579,17.3118947 10.4541053,17.432 L10.7171579,19.0007368 L13.2835789,19.0007368 L13.5458947,17.432 C13.9688421,17.3118947 14.3718947,17.1446316 14.7476842,16.9346316 L16.0430526,17.8578947 L17.8578947,16.0437895 L16.9346316,14.7491579 C17.1446316,14.3726316 17.3118947,13.9695789 17.4327368,13.5466316 L19,13.2835789 Z" id="Fill-1-Copy-15"></path>
        </g>
    </g>
</svg>